<svg xmlns:dc="http://purl.org/dc/elements/1.1/" xmlns:cc="http://creativecommons.org/ns#" xmlns:rdf="http://www.w3.org/1999/02/22-rdf-syntax-ns#" xmlns:svg="http://www.w3.org/2000/svg" xmlns="http://www.w3.org/2000/svg" viewBox="0 0 20 20" shape-rendering="crispEdges"><metadata><rdf:RDF><cc:Work><dc:format>image/svg+xml</dc:format><dc:type rdf:resource="http://purl.org/dc/dcmitype/StillImage"/><dc:title>Male / 8biticon</dc:title><dc:creator><cc:Agent><dc:title>Plastic Jam</dc:title></cc:Agent></dc:creator><dc:source>https://github.com/dicebear/dicebear</dc:source><cc:license rdf:resource="https://github.com/dicebear/dicebear/blob/v4/packages/avatars-male-sprites/LICENSE"/><dc:contributor><cc:Agent><dc:title>Florian Körner</dc:title></cc:Agent></dc:contributor></cc:Work></rdf:RDF></metadata><rect fill="transparent" width="20" height="20" x="0" y="0"/><path d="M8 15v1H4v1H3v3h14v-3h-1v-1h-4v-1h3v-1h1v-1h1v-3h1V7h-1V4h-1V3h-1V2H5v1H4v1H3v3H2v3h1v3h1v1h1v1h3z" fill="#EAC393"/><path d="M5 15v-1H4v-1H3v-3H2V7h1V4h1V3h1V2h10v1h1v1h1v3h1v3h-1v3h-1v1h-1v1H5z" fill="#FFF" fill-opacity=".1"/><path d="M5 8h3v1H5V8zm7 0h3v1h-3V8z" fill="#FFF"/><path d="M6 8h1v1H6V8zm7 0h1v1h-1V8z" fill="#5b7c8b"/><path d="M7 5v1H5v1H4V6h1V5h2zm6 0h2v1h1v1h-1V6h-2V5z" fill-rule="evenodd" fill="#000000"/><path d="M3 7v6h1v1h1v1h10v-1h1v-1h1V7h-1v2h-1v1h-1v1H6v-1H5V9H4V7H3z" id="Path" fill="#090806" fill-opacity="0.75"/><path d="M9 12v2h2v-2H9z" fill="#ffd3be"/><path d="M3 20v-3h1v-1h3v-1h1v1h1v1h2v-1h1v-1h1v1h3v1h1v3H3z" fill="#559e83"/><path d="M6 16H4v1H3v3h6v-2H8v-1H6v-1zm2 0h1-1zm3 0h1-1zm2 0h1v1h-2v1h-1v2h6v-3h-1v-1h-3z" fill-rule="evenodd" fill="#FFF" fill-opacity=".2"/><path d="M0 7h1v5h1v1h1V9h1V7h1V6h1V4h1V3h7v1h1v1h1v1h1v7h1v-2h1V7h-1V6h1V4h-1v1h-1V3h1V2h-1v1h-1V2h-2V1h-1V0h-1v1H5V0H4v1H3V0H2v1h1v2H2V2H1v1h1v1H1v2H0v1z" fill="#090806"/></svg>