<svg xmlns:dc="http://purl.org/dc/elements/1.1/" xmlns:cc="http://creativecommons.org/ns#" xmlns:rdf="http://www.w3.org/1999/02/22-rdf-syntax-ns#" xmlns:svg="http://www.w3.org/2000/svg" xmlns="http://www.w3.org/2000/svg" viewBox="0 0 20 20" shape-rendering="crispEdges"><metadata><rdf:RDF><cc:Work><dc:format>image/svg+xml</dc:format><dc:type rdf:resource="http://purl.org/dc/dcmitype/StillImage"/><dc:title>Male / 8biticon</dc:title><dc:creator><cc:Agent><dc:title>Plastic Jam</dc:title></cc:Agent></dc:creator><dc:source>https://github.com/dicebear/dicebear</dc:source><cc:license rdf:resource="https://github.com/dicebear/dicebear/blob/v4/packages/avatars-male-sprites/LICENSE"/><dc:contributor><cc:Agent><dc:title>Florian Körner</dc:title></cc:Agent></dc:contributor></cc:Work></rdf:RDF></metadata><rect fill="transparent" width="20" height="20" x="0" y="0"/><path d="M8 15v1H4v1H3v3h14v-3h-1v-1h-4v-1h3v-1h1v-1h1v-3h1V7h-1V4h-1V3h-1V2H5v1H4v1H3v3H2v3h1v3h1v1h1v1h3z" fill="#CB9E6E"/><path d="M5 15v-1H4v-1H3v-3H2V7h1V4h1V3h1V2h10v1h1v1h1v3h1v3h-1v3h-1v1h-1v1H5z" fill="#FFF" fill-opacity=".1"/><path d="M5 7h3v3H5V7zm7 0h3v3h-3V7z" fill="#FFF"/><path d="M6 7h2v2H6V7zm7 0h2v2h-2V7z" fill="#76778b"/><path d="M6 7v1h1v1h1V8H7V7H6zm7 0v1h1v1h1V8h-1V7h-1z" fill="#FFF" fill-opacity=".4"/><path d="M7 7v1h1V7H7zm7 0h1v1h-1V7z" fill="#FFF" fill-opacity=".7"/><path d="M4 7V5h3v1H5v1H4zm12-2v2h-1V6h-2V5h3z" fill-rule="evenodd" fill="#876f58"/><path d="M3 13h1v1h1v1h10v-1h1v-1h1v-3h-1v1h-1v1H5v-1H4v-1H3v3z" id="Path" fill="#a18468" fill-opacity="0.5"/><path d="M8 13v1h1v-1h3v-1H9v1H8z" fill="#eec1ad"/><path d="M5 16H4v1H3v3h14v-3h-1v-1h-3v1H7v-1H5z" fill="#005b96"/><path d="M10 20v-1h3v1h-3z" fill="#FFF" fill-opacity=".5"/><path d="M5 16H4v1H3v3h1v-1h1v-3zm1 0h1v1h6v-1h1v2H6v-2zm9 0h1v1h1v3h-1v-1h-1v-3z" fill-rule="evenodd" fill="#FFF" fill-opacity=".8"/><path d="M8 2h4v1h-1v1H9V3H8V2z" fill="#a18468"/></svg>